<svg width="25" height="25" viewBox="0 0 25 25" fill="none" xmlns="http://www.w3.org/2000/svg">
<g clip-path="url(#clip0_199_2634)">
<path d="M17.8148 19.5833V16.5385M17.8148 13.4937V16.5385M14.6777 16.5385H17.8148M20.9519 16.5385H17.8148" stroke="white" stroke-width="1.38401" stroke-linecap="round" stroke-linejoin="round"/>
</g>
<path d="M3.80416 10.5893C4.27245 10.1212 5.03204 10.1214 5.50045 10.5893C5.96803 11.0577 5.96844 11.8174 5.50045 12.2856L3.80416 13.9819C1.93052 15.8555 1.93054 18.8943 3.80416 20.768C5.6778 22.6408 8.71593 22.6411 10.5893 20.768L12.2866 19.0707C12.298 19.0593 12.3099 19.0484 12.3217 19.0375C12.6773 19.7734 13.2025 20.4118 13.8461 20.9028L12.2856 22.4643C9.47535 25.2742 4.91834 25.2739 2.10787 22.4643C-0.702609 19.6538 -0.702636 15.0961 2.10787 12.2856L3.80416 10.5893ZM15.6362 7.23968C16.1046 6.77138 16.8641 6.77136 17.3325 7.23968C17.8 7.70814 17.8005 8.46782 17.3325 8.93597L8.93599 17.3325C8.46786 17.8005 7.70816 17.7999 7.2397 17.3325C6.7714 16.8641 6.77144 16.1046 7.2397 15.6362L15.6362 7.23968ZM12.2856 2.10785C15.0961 -0.702614 19.6538 -0.702616 22.4643 2.10785C25.2738 4.91831 25.274 9.47524 22.4643 12.2856L21.0874 13.6616C20.5959 13.0174 19.9569 12.4917 19.2202 12.1362L20.768 10.5893C22.6409 8.71579 22.6406 5.67773 20.768 3.80413C18.8945 1.93066 15.8566 1.93091 13.9829 3.80413H13.9819L12.2856 5.50042C11.8174 5.96853 11.0578 5.96806 10.5893 5.50042C10.1213 5.03199 10.1211 4.27243 10.5893 3.80413L12.2856 2.10785Z" fill="white"/>
<defs>
<clipPath id="clip0_199_2634">
<rect width="8.30409" height="8.11955" fill="white" transform="translate(13.5708 12.5708)"/>
</clipPath>
</defs>
</svg>
