<svg width="50" height="37" viewBox="0 0 50 37" fill="none" xmlns="http://www.w3.org/2000/svg">
<path d="M4.80222 4.74994C4.44377 2.24307 6.38893 0 8.92129 0H17.5821C18.5893 0 19.5624 0.365362 20.3207 1.0283L22.0975 2.58155C22.8523 3.24146 23.8201 3.60661 24.8227 3.60982L39.9136 3.65822C42.6412 3.66696 44.6229 6.25379 43.9212 8.88964L38.7932 28.1514C38.308 29.9737 36.658 31.2419 34.7723 31.2419H12.1985C10.128 31.2419 8.37253 29.7196 8.07945 27.6699L4.80222 4.74994Z" fill="#43281C"/>
<path d="M0.563534 7.11115C0.263893 4.6331 2.19831 2.45068 4.69441 2.45068H14.6949C15.7118 2.45068 16.6934 2.82302 17.4545 3.49736L19.5591 5.36226C20.3202 6.0366 21.3018 6.40894 22.3186 6.40894H45.2035C47.6564 6.40894 49.5771 8.51993 49.346 10.9619L47.2618 32.9866C47.0596 35.1232 45.2655 36.7555 43.1193 36.7555H7.83621C5.73136 36.7555 3.95801 35.1837 3.70533 33.0941L0.563534 7.11115Z" fill="url(#paint0_radial_113_4285)"/>
<path d="M0.563534 7.11115C0.263893 4.6331 2.19831 2.45068 4.69441 2.45068H14.6949C15.7118 2.45068 16.6934 2.82302 17.4545 3.49736L19.5591 5.36226C20.3202 6.0366 21.3018 6.40894 22.3186 6.40894H45.2035C47.6564 6.40894 49.5771 8.51993 49.346 10.9619L47.2618 32.9866C47.0596 35.1232 45.2655 36.7555 43.1193 36.7555H7.83621C5.73136 36.7555 3.95801 35.1837 3.70533 33.0941L0.563534 7.11115Z" fill="url(#paint1_radial_113_4285)" fill-opacity="0.2"/>
<path d="M4.69434 3.14404H14.6953C15.5424 3.14413 16.3601 3.45444 16.9941 4.01611L19.0996 5.88135C19.9874 6.66789 21.1323 7.10199 22.3184 7.10205H45.2031C47.2472 7.10205 48.8478 8.86199 48.6553 10.897L46.5713 32.9214C46.4027 34.7018 44.9076 36.062 43.1191 36.062H7.83594C6.08214 36.0619 4.60427 34.7523 4.39355 33.0112L1.25195 7.02783C1.00231 4.96284 2.61431 3.14409 4.69434 3.14404Z" stroke="#43281C" stroke-opacity="0.21" stroke-width="1.38699"/>
<defs>
<radialGradient id="paint0_radial_113_4285" cx="0" cy="0" r="1" gradientTransform="matrix(0.319083 -52.0699 75.5542 0.426624 26.1648 47.1695)" gradientUnits="userSpaceOnUse">
<stop stop-color="#8E5542"/>
<stop offset="0.778846" stop-color="#C06E52"/>
</radialGradient>
<radialGradient id="paint1_radial_113_4285" cx="0" cy="0" r="1" gradientUnits="userSpaceOnUse" gradientTransform="translate(24.8884 19.6031) rotate(90) scale(17.1524 24.8884)">
<stop stop-color="#DFBBAE"/>
<stop offset="1" stop-color="#C06E52"/>
</radialGradient>
</defs>
</svg>
