<svg width="27" height="24" viewBox="0 0 27 24" fill="none" xmlns="http://www.w3.org/2000/svg">
<path d="M10.126 14.3665C10.5701 16.0917 12.1362 17.3665 14 17.3665C15.8638 17.3665 17.4299 16.0917 17.874 14.3665M13.0177 3.13046L6.23539 8.40558C5.78202 8.75821 5.55534 8.93452 5.39203 9.15532C5.24737 9.3509 5.1396 9.57124 5.07403 9.80551C5 10.07 5 10.3572 5 10.9316V18.1665C5 19.2866 5 19.8466 5.21799 20.2745C5.40973 20.6508 5.71569 20.9568 6.09202 21.1485C6.51984 21.3665 7.07989 21.3665 8.2 21.3665H19.8C20.9201 21.3665 21.4802 21.3665 21.908 21.1485C22.2843 20.9568 22.5903 20.6508 22.782 20.2745C23 19.8466 23 19.2866 23 18.1665V10.9316C23 10.3572 23 10.07 22.926 9.80551C22.8604 9.57124 22.7526 9.3509 22.608 9.15532C22.4447 8.93452 22.218 8.75821 21.7646 8.40559L14.9823 3.13046C14.631 2.85721 14.4553 2.72058 14.2613 2.66806C14.0902 2.62172 13.9098 2.62172 13.7387 2.66806C13.5447 2.72058 13.369 2.85721 13.0177 3.13046Z" stroke="#C06E52" stroke-width="2" stroke-linecap="round" stroke-linejoin="round"/>
</svg>
