<svg width="20" height="18" viewBox="0 0 20 18" fill="none" xmlns="http://www.w3.org/2000/svg">
  <path d="M2.82174 4.25015C2.19145 3.61616 1.87631 3.29917 1.86443 3.02976C1.8541 2.79573 1.96584 2.57079 2.16652 2.42167C2.39753 2.25 2.87015 2.25 3.81539 2.25H16.1845C17.1297 2.25 17.6024 2.25 17.8334 2.42167C18.0341 2.57079 18.1458 2.79573 18.1355 3.02976C18.1236 3.29917 17.8084 3.61616 17.1782 4.25015L12.423 9.0333C12.2973 9.15968 12.2345 9.2229 12.1897 9.29482C12.15 9.35857 12.1208 9.42727 12.1032 9.4986C12.0832 9.57907 12.0832 9.6639 12.0832 9.83348V13.8438C12.0832 13.9904 12.0832 14.0638 12.057 14.1272C12.0337 14.1832 11.996 14.2334 11.9468 14.2736C11.8912 14.3191 11.8155 14.3464 11.6642 14.4009L8.83091 15.4209C8.52458 15.5311 8.37141 15.5863 8.24851 15.5632C8.141 15.5431 8.04666 15.4857 7.98599 15.4033C7.91662 15.3092 7.91662 15.1606 7.91662 14.8638V9.83348C7.91662 9.6639 7.91662 9.57907 7.89672 9.4986C7.87907 9.42727 7.84992 9.35857 7.81019 9.29482C7.76539 9.2229 7.70258 9.15968 7.57693 9.0333L2.82174 4.25015Z" stroke="currentColor" stroke-width="2" stroke-linecap="round" stroke-linejoin="round"/>
</svg>
