<svg width="112" height="28" viewBox="0 0 112 28" fill="none" xmlns="http://www.w3.org/2000/svg">
<path d="M3.56348 13.1575C3.56348 10.4325 5.77253 8.22344 8.49753 8.22344H12.8834H17.2692C19.9942 8.22344 22.2032 10.4325 22.2032 13.1575V19.325C22.2032 20.8963 21.4548 22.3737 20.188 23.3032L17.8885 24.9903L15.1831 27.1959C14.2313 27.9718 12.8796 28.02 11.8749 27.314L8.5686 24.9903L5.86001 23.2771C4.43024 22.3728 3.56348 20.799 3.56348 19.1072L3.56348 13.1575Z" fill="#C06E52"/>
<path d="M12.6816 9.06523C12.472 9.48612 11.8646 9.46523 11.6844 9.03093L10.6343 6.4994C10.5808 6.37025 10.5078 6.25006 10.4178 6.143L9.04289 4.50618C8.40213 3.74337 8.76347 2.57344 9.72279 2.30483L15.5223 0.680968C16.2889 0.466308 16.8828 1.35755 16.3895 1.98241L15.9867 2.49263C15.9282 2.56668 15.8775 2.64656 15.8355 2.73101L12.6816 9.06523Z" fill="#C06E52"/>
<path d="M1.24612e-06 11.1814C1.24612e-06 9.54775 1.32431 8.22344 2.95793 8.22344H22.5347C24.1683 8.22344 25.4926 9.54775 25.4926 11.1814C25.4926 13.3635 23.2106 14.7944 21.2463 13.844L15.7134 11.1668C13.8393 10.2599 11.6533 10.2599 9.77921 11.1668L4.24629 13.844C2.28204 14.7944 1.24612e-06 13.3635 1.24612e-06 11.1814Z" fill="#43281C"/>
<path d="M31.9338 24.6797H28.4628L35.625 6.2233H39.5092L46.6438 24.6797H43.0352L38.5175 12.5315L37.4982 9.08818L36.479 12.5315L31.9338 24.6797ZM42.4567 20.1345H32.1817V17.3247H42.4567V20.1345ZM52.7719 24.9552C51.4313 24.9552 50.2743 24.6614 49.301 24.0737C48.3277 23.486 47.5656 22.6688 47.0146 21.622C46.482 20.5569 46.2158 19.3356 46.2158 17.9583C46.2158 16.5626 46.482 15.3413 47.0146 14.2945C47.5656 13.2478 48.3277 12.4397 49.301 11.8704C50.2743 11.2827 51.4313 10.9889 52.7719 10.9889C54.4431 10.9889 55.8113 11.4021 56.8764 12.2285C57.9416 13.0549 58.6486 14.0925 58.9975 15.3413L56.1326 16.8289C55.9857 15.8923 55.6552 15.1393 55.141 14.57C54.6268 13.9823 53.8646 13.6885 52.8546 13.6885C52.1934 13.6885 51.6058 13.8538 51.0916 14.1844C50.5957 14.5149 50.2101 15.0016 49.9346 15.6443C49.6775 16.2687 49.5489 17.0401 49.5489 17.9583C49.5489 18.8765 49.6775 19.657 49.9346 20.2998C50.2101 20.9425 50.5957 21.4292 51.0916 21.7598C51.6058 22.072 52.1934 22.2281 52.8546 22.2281C53.8646 22.2281 54.6268 21.9434 55.141 21.3741C55.6552 20.8048 55.9857 20.0519 56.1326 19.1153L58.9975 20.6028C58.6486 21.8516 57.9416 22.8892 56.8764 23.7156C55.8113 24.542 54.4431 24.9552 52.7719 24.9552ZM65.931 24.9552C64.6454 24.9552 63.5068 24.6614 62.5151 24.0737C61.5235 23.486 60.7521 22.6688 60.2012 21.622C59.6686 20.5569 59.4023 19.3356 59.4023 17.9583C59.4023 16.5626 59.6686 15.3413 60.2012 14.2945C60.7521 13.2478 61.5235 12.4397 62.5151 11.8704C63.5068 11.2827 64.6454 10.9889 65.931 10.9889C67.2532 10.9889 68.4102 11.2827 69.4019 11.8704C70.4119 12.4397 71.1924 13.2478 71.7434 14.2945C72.2943 15.3413 72.5698 16.5626 72.5698 17.9583C72.5698 19.3356 72.2943 20.5569 71.7434 21.622C71.1924 22.6688 70.4119 23.486 69.4019 24.0737C68.4102 24.6614 67.2532 24.9552 65.931 24.9552ZM65.9861 22.2556C66.6288 22.2556 67.1889 22.1087 67.6664 21.8149C68.1623 21.521 68.5479 21.0619 68.8234 20.4375C69.1172 19.7947 69.2641 18.9683 69.2641 17.9583C69.2641 16.9482 69.1172 16.131 68.8234 15.5066C68.5479 14.8638 68.1623 14.3956 67.6664 14.1017C67.1889 13.8079 66.6288 13.661 65.9861 13.661C65.3433 13.661 64.774 13.8079 64.2781 14.1017C63.8007 14.3956 63.415 14.8638 63.1212 15.5066C62.8457 16.131 62.708 16.9482 62.708 17.9583C62.708 18.9683 62.8457 19.7947 63.1212 20.4375C63.415 21.0619 63.8007 21.521 64.2781 21.8149C64.774 22.1087 65.3433 22.2556 65.9861 22.2556ZM77.5562 24.6797H74.2781V11.2644H77.5562V24.6797ZM77.5562 17.3523L77.3909 16.0575C77.4644 15.4332 77.6021 14.8271 77.8041 14.2395C78.0245 13.6334 78.3091 13.0825 78.6581 12.5866C79.0254 12.0908 79.4661 11.696 79.9803 11.4021C80.5129 11.1083 81.1189 10.9614 81.7984 10.9614C82.6799 10.9614 83.3961 11.2368 83.9471 11.7878C84.498 12.3387 84.7735 13.1192 84.7735 14.1293C84.7735 14.772 84.6908 15.3413 84.5256 15.8372C84.3787 16.3147 84.2409 16.6636 84.1124 16.884H80.8067C81.0455 16.6452 81.2475 16.333 81.4128 15.9474C81.5964 15.5433 81.6882 15.1485 81.6882 14.7628C81.6882 14.3956 81.5872 14.0834 81.3852 13.8262C81.2016 13.5508 80.8894 13.413 80.4486 13.413C79.9528 13.413 79.4753 13.5875 79.0162 13.9364C78.5754 14.2854 78.2173 14.7537 77.9419 15.3413C77.6847 15.929 77.5562 16.5993 77.5562 17.3523ZM97.6478 24.6797H94.3973V16.3606C94.3973 15.5342 94.2228 14.873 93.8739 14.3772C93.5433 13.863 92.873 13.6059 91.8629 13.6059C91.1284 13.6059 90.5499 13.7528 90.1275 14.0466C89.7051 14.3405 89.4021 14.7537 89.2184 15.2862C89.0348 15.8188 88.943 16.4524 88.943 17.187L88.7777 15.8923C88.8695 15.0659 89.0899 14.2762 89.4388 13.5232C89.7877 12.7703 90.2836 12.1642 90.9264 11.7051C91.5875 11.2277 92.4322 10.9889 93.4607 10.9889C94.7646 10.9889 95.7838 11.3654 96.5184 12.1183C97.2713 12.8713 97.6478 13.9456 97.6478 15.3413V24.6797ZM88.943 24.6797H85.6649V11.2644H88.943V24.6797Z" fill="#43281C"/>
</svg>
