<svg width="164" height="184" viewBox="0 0 164 184" fill="none" xmlns="http://www.w3.org/2000/svg">
<path d="M22.9248 84.6457C22.9248 67.1151 37.1362 52.9037 54.6668 52.9037H82.8818H111.097C128.627 52.9037 142.839 67.1151 142.839 84.6457V124.323C142.839 134.431 138.024 143.936 129.874 149.915L115.081 160.769L97.6764 174.958C91.5534 179.95 82.8576 180.26 76.3942 175.718L55.1239 160.769L37.699 149.748C28.5009 143.93 22.9248 133.805 22.9248 122.922L22.9248 84.6457Z" fill="#C06E52"/>
<path d="M81.5834 58.3195C80.2352 61.0272 76.3275 60.8928 75.1685 58.0988L68.413 41.8129C68.0683 40.982 67.5986 40.2088 67.02 39.5201L58.1747 28.99C54.0526 24.0826 56.3772 16.5562 62.5487 14.8282L99.8583 4.38151C104.79 3.00054 108.611 8.73411 105.437 12.754L102.846 16.0364C102.47 16.5127 102.144 17.0266 101.873 17.5699L81.5834 58.3195Z" fill="#C06E52"/>
<path d="M8.0166e-06 71.9328C8.0166e-06 61.4233 8.51961 52.9037 19.0291 52.9037H144.971C155.48 52.9037 164 61.4233 164 71.9328C164 85.9709 149.319 95.1764 136.683 89.062L101.088 71.8388C89.0313 66.0049 74.9687 66.0049 62.912 71.8388L27.3174 89.062C14.6809 95.1764 8.0166e-06 85.9709 8.0166e-06 71.9328Z" fill="#43281C"/>
</svg>
