<svg width="100%" height="122" viewBox="0 33 436 122" preserveAspectRatio="none" fill="none" xmlns="http://www.w3.org/2000/svg">
<g filter="url(#filter0_d_207_3558)">
<path d="M0 93C0 64.7157 0 50.5736 8.7868 41.7868C17.5736 33 31.7157 33 60 33H148.972C154.973 33 157.974 33 160.807 33.55C165.3 34.4225 169.534 36.3115 173.185 39.0726C175.486 40.8132 177.491 43.0463 181.5 47.5125C190.637 57.6918 195.205 62.7814 200.318 65.3329C208.459 69.3951 218.003 69.5438 226.266 65.737C231.456 63.346 236.181 58.4011 245.631 48.5113L246.998 47.0804C251.511 42.3576 253.767 39.9962 256.37 38.2197C259.597 36.0175 263.224 34.467 267.045 33.655C270.128 33 273.394 33 279.926 33H376C404.284 33 418.426 33 427.213 41.7868C436 50.5736 436 64.7157 436 93V155H0V93Z" fill="#FFFCFB"/>
</g>
<defs>
<filter id="filter0_d_207_3558" x="0" y="0" width="436" height="155" filterUnits="userSpaceOnUse" color-interpolation-filters="sRGB">
<feFlood flood-opacity="0" result="BackgroundImageFix"/>
<feColorMatrix in="SourceAlpha" type="matrix" values="0 0 0 0 0 0 0 0 0 0 0 0 0 0 0 0 0 0 127 0" result="hardAlpha"/>
<feOffset dy="-3"/>
<feGaussianBlur stdDeviation="15"/>
<feComposite in2="hardAlpha" operator="out"/>
<feColorMatrix type="matrix" values="0 0 0 0 0.752941 0 0 0 0 0.431373 0 0 0 0 0.321569 0 0 0 0.29 0"/>
<feBlend mode="normal" in2="BackgroundImageFix" result="effect1_dropShadow_207_3558"/>
<feBlend mode="normal" in="SourceGraphic" in2="effect1_dropShadow_207_3558" result="shape"/>
</filter>
</defs>
</svg>